<svg id="Capa_1" enable-background="new 0 0 512 512" height="512" viewBox="0 0 512 512" width="512" xmlns="http://www.w3.org/2000/svg"><g><g id="Flat"><path d="m479 504 20-53-34 11-16-54-16 54-34-11 20 53z" fill="#ebfdc0"/><path d="m96 38v180h130l1.056 2.111c5.481 10.964 16.687 17.889 28.944 17.889 12.257 0 23.463-6.925 28.944-17.889l1.056-2.111h130v-180z" fill="#f88fa4"/><path d="m96 188v30h130l1.056 2.111c5.481 10.964 16.687 17.889 28.944 17.889 12.257 0 23.463-6.925 28.944-17.889l1.056-2.111h130v-30z" fill="#f05475"/><path d="m296 8c-22.091 0-40 17.909-40 40 0-22.091-17.909-40-40-40h-90v180h260v-180z" fill="#feef8f"/><g fill="#ffc277"><path d="m256 188h-130v-40h90c22.091 0 40 17.909 40 40z"/><path d="m256 188h130v-40h-90c-22.091 0-40 17.909-40 40z"/></g><g fill="#ebfdc0"><path d="m292.055 324.945s41.776 6.904 63.285-14.604 14.604-63.285 14.604-63.285-41.776-6.904-63.285 14.604-14.604 63.285-14.604 63.285z"/><path d="m220.076 348.076s-36.554 6.041-55.374-12.779-12.779-55.374-12.779-55.374 36.554-6.041 55.374 12.779 12.779 55.374 12.779 55.374z"/><path d="m33 504-20-53 34 11 16-54 16 54 34-11-20 53z"/></g><path d="m366 504c0-18.606-11.293-34.573-27.398-41.425-2.091-11.695-12.306-20.575-24.602-20.575-1.81 0-3.574.197-5.275.562-5.247-8.724-14.803-14.562-25.725-14.562-.537 0-1.07.016-1.6.043-5.31-8.434-14.697-14.043-25.4-14.043s-20.09 5.609-25.4 14.043c-.53-.028-1.063-.043-1.6-.043-10.922 0-20.478 5.838-25.725 14.562-1.701-.365-3.465-.562-5.275-.562-12.296 0-22.511 8.88-24.602 20.575-16.105 6.852-27.398 22.819-27.398 41.425z" fill="#e9dcc0"/><path d="m355.34 280.34c-21.508 21.509-63.285 14.604-63.285 14.604s-.016-.096-.043-.279c-2.299 16.094.043 30.279.043 30.279s41.776 6.904 63.285-14.604c20.484-20.484 15.198-59.349 14.648-63.006-1.646 11.526-5.672 24.031-14.648 33.006z" fill="#c7efbc"/><path d="m164.702 305.298c-6.971-6.971-10.526-16.375-12.246-25.454-.338.048-.533.08-.533.08s-6.041 36.554 12.779 55.374 55.374 12.779 55.374 12.779 2.39-14.49-.533-29.92c-4.5.644-37.335 4.647-54.841-12.859z" fill="#c7efbc"/><path d="m157.466 474c-7.128 7.961-11.466 18.473-11.466 30h220c0-11.527-4.338-22.039-11.466-30z" fill="#decba0"/></g><g fill="#fff"><path d="m271 463.5h15v15h-15z"/><path d="m201 81.5h15v15h-15z"/><path d="m332 81.5h15v15h-15z"/></g><g id="Outline"><path d="m489.846 496.5 21.673-57.433-41.512 13.431-21.007-70.898-21.007 70.898-41.512-13.431 21.673 57.433h-35.19c-2.402-16.749-12.752-31.383-27.939-39.192-4.17-13.43-16.634-22.808-31.025-22.808-.582 0-1.165.016-1.747.047-6.589-8.18-16.439-13.324-26.975-13.977-5.515-6.914-13.204-11.576-21.778-13.309v-43.155l31.254-31.254c2.965.316 7.402.659 12.712.659 15.448 0 38.219-2.909 53.178-17.868 23.958-23.958 17.008-67.95 16.7-69.811l-.876-5.3-5.3-.876c-1.862-.308-45.854-7.258-69.811 16.7-20.1 20.1-18.445 54.297-17.209 65.889l-20.648 20.649v-98.104c11.349-2.144 21.219-9.089 27.062-19.289h132.938v-56.113h-15v41.112h-127.135l-3.128 6.257c-4.239 8.477-12.76 13.743-22.237 13.743s-17.998-5.266-22.236-13.743l-3.128-6.257h-39.636v15h30.438c5.844 10.2 15.714 17.146 27.062 19.289v121.104l-20.528-20.528c1.083-10.671 2.248-40.349-15.371-57.967-21.299-21.3-60.253-15.147-61.9-14.875l-5.301.877-.876 5.301c-.272 1.647-6.425 40.601 14.875 61.9 13.321 13.321 33.545 15.904 47.232 15.904 4.411 0 8.133-.269 10.736-.532l31.133 31.133v20.155c-8.574 1.732-16.263 6.395-21.778 13.309-10.536.653-20.386 5.797-26.975 13.977-.583-.032-1.165-.047-1.747-.047-14.391 0-26.855 9.378-31.024 22.808-15.188 7.809-25.537 22.443-27.939 39.192h-35.19l21.673-57.433-41.512 13.431-21.008-70.898-21.007 70.898-41.512-13.431 21.673 57.433h-22.154v15h197v-15h-42.727c2.428-11.941 10.542-22.123 22.061-27.024l3.733-1.588.714-3.994c1.49-8.34 8.731-14.394 17.218-14.394 1.235 0 2.479.133 3.699.395l5.241 1.126 2.763-4.594c4.115-6.843 11.329-10.928 19.298-10.928.405 0 .807.012 1.207.033l4.396.231 2.345-3.725c4.154-6.598 11.276-10.538 19.052-10.538s14.898 3.94 19.053 10.539l2.345 3.725 4.396-.231c.399-.021.801-.033 1.207-.033 7.969 0 15.183 4.085 19.298 10.928l2.763 4.594 5.241-1.126c1.219-.262 2.464-.395 3.699-.395 8.351 0 15.483 5.866 17.13 14h-30.132v15h47.487c4.641 5.002 7.859 11.213 9.239 18h-145.726v15h300v-15h-22.154zm-177.883-229.537c14.211-14.21 39.904-13.998 51.188-13.114.885 11.293 1.095 36.98-13.114 51.188-14.209 14.209-39.895 14.001-51.188 13.114-.885-11.293-1.095-36.98 13.114-51.188zm-98.704 74.296c-10.104.708-31.407.582-43.253-11.264-11.848-11.849-11.972-33.157-11.264-43.253 10.103-.707 31.407-.582 43.253 11.264s11.972 33.15 11.264 43.253zm-125.445 155.241h-49.628l-12.667-33.567 26.488 8.569 10.993-37.102 10.993 37.102 26.488-8.569zm386 0h-49.628l-12.667-33.567 26.488 8.569 10.993-37.102 10.993 37.102 26.488-8.569z"/><path d="m176 210.5h-72.5v-165h15v150h130 15 130v-150h15v108.887h15v-123.887h-30v-30h-37.5v15h22.5v125h-82.5c-12.564 0-23.996 4.913-32.5 12.906v-105.406c0-17.92 14.58-32.5 32.5-32.5h45v-15h-45c-16.782 0-31.548 8.756-40 21.932-8.452-13.176-23.218-21.932-40-21.932h-97.5v30h-30v195h87.5zm120-55h82.5v25h-114.117c3.396-14.315 16.278-25 31.617-25zm-162.5-140h82.5c17.92 0 32.5 14.58 32.5 32.5v105.406c-8.504-7.994-19.936-12.906-32.5-12.906h-82.5zm0 140h82.5c15.339 0 28.221 10.685 31.617 25h-114.117z"/><path d="m156 51.5h70v15h-70z"/><path d="m156 81.5h30v15h-30z"/><path d="m286 51.5h70v15h-70z"/><path d="m286 81.5h30v15h-30z"/></g></g></svg>