<svg height="486pt" viewBox="-1 0 486 486.754" width="486pt" xmlns="http://www.w3.org/2000/svg"><path d="m347.945312 388.695312h33.570313c4.351563 0 7.878906-3.53125 7.878906-7.882812v-272.5625h-49.328125v272.5625c0 4.351562 3.527344 7.882812 7.878906 7.882812zm0 0" fill="#a4c9ff"/><path d="m389.394531 108.25-21.597656-53.238281c-1.296875-3.199219-4.832031-3.199219-6.128906 0l-21.601563 53.238281zm0 0" fill="#e0ebfc"/><path d="m389.394531 133.410156h-49.328125v-25.164062h49.328125zm0 0" fill="#f9a7a7"/><path d="m330.386719 329.234375v-123.628906c0-3.714844-3.011719-6.726563-6.726563-6.726563s-6.726562 3.011719-6.726562 6.726563v145.6875c0 7.433593 6.027344 13.460937 13.460937 13.460937h9.671875v-35.519531zm0 0" fill="#a4c9ff"/><path d="m367.792969 55.011719 6.417969 15.8125h-18.960938l6.417969-15.8125c1.296875-3.199219 4.832031-3.199219 6.125 0zm0 0" fill="#4671c6"/><path d="m381.515625 392.695312h-33.570313c-6.550781 0-11.878906-5.332031-11.878906-11.882812v-272.5625c0-2.207031 1.792969-4 4-4h49.328125c2.210938 0 4 1.792969 4 4v272.5625c0 6.550781-5.328125 11.882812-11.878906 11.882812zm-37.449219-280.445312v268.5625c0 2.140625 1.738282 3.882812 3.878906 3.882812h33.570313c2.136719 0 3.878906-1.742187 3.878906-3.882812v-268.5625zm0 0" fill="#3762cc"/><path d="m389.394531 112.25h-49.328125c-1.332031 0-2.574218-.660156-3.316406-1.765625s-.890625-2.503906-.390625-3.738281l21.601563-53.238282c1.226562-3.019531 3.820312-4.894531 6.769531-4.894531 2.957031 0 5.546875 1.875 6.773437 4.894531l21.601563 53.238282c.5 1.234375.355469 2.632812-.386719 3.738281-.75 1.101563-1.992188 1.765625-3.324219 1.765625zm-43.386719-8h37.449219l-18.71875-46.128906zm0 0" fill="#3762cc"/><path d="m340.066406 368.753906h-9.671875c-9.625 0-17.460937-7.832031-17.460937-17.460937v-145.6875c0-5.914063 4.8125-10.726563 10.726562-10.726563 5.914063 0 10.726563 4.8125 10.726563 10.726563v119.628906h5.679687c2.207032 0 4 1.792969 4 4v35.519531c0 2.210938-1.792968 4-4 4zm-16.40625-165.875c-1.503906 0-2.726562 1.222656-2.726562 2.726563v145.6875c0 5.21875 4.246094 9.460937 9.460937 9.460937h5.671875v-27.519531h-5.679687c-2.207031 0-4-1.792969-4-4v-123.628906c0-1.503907-1.222657-2.726563-2.726563-2.726563zm0 0" fill="#3762cc"/><path d="m381.515625 388.695312h-33.570313c-.417968 0-.820312-.0625-1.222656-.125v15.203126c0 9.945312 8.0625 18.007812 18.007813 18.007812 9.949219 0 18.011719-8.0625 18.011719-18.007812v-15.203126c-.402344.0625-.808594.125-1.226563.125zm0 0" fill="#f9a7a7"/><path d="m364.730469 425.78125c-12.132813 0-22.007813-9.875-22.007813-22.007812v-15.203126c0-1.167968.511719-2.277343 1.398438-3.039062.886718-.757812 2.0625-1.09375 3.21875-.914062.199218.03125.394531.078124.605468.078124h33.570313c.207031 0 .410156-.046874.609375-.078124 1.15625-.175782 2.332031.15625 3.214844.914062.886718.761719 1.398437 1.871094 1.398437 3.039062v15.203126c0 12.132812-9.871093 22.007812-22.007812 22.007812zm-14.007813-33.085938v11.078126c0 7.722656 6.285156 14.007812 14.007813 14.007812 7.722656 0 14.007812-6.285156 14.007812-14.007812v-11.078126zm0 0" fill="#3762cc"/><path d="m261.296875 461.421875v-448.453125c0-4.953125 4.015625-8.96875 8.96875-8.96875h67.269531c4.953125 0 8.96875 4.015625 8.96875 8.96875v448.453125c0 4.953125-4.015625 8.96875-8.96875 8.96875h-67.269531c-4.953125 0-8.96875-4.015625-8.96875-8.96875zm0 0" fill="#4671c6"/><g fill="#6bdddd"><path d="m318.082031 29.394531h22.421875c3.3125 0 6 2.683594 6 6 0 3.3125-2.6875 6-6 6h-22.421875c-3.316406 0-6-2.6875-6-6 0-3.316406 2.683594-6 6-6zm0 0"/><path d="m318.082031 74.238281h22.421875c3.3125 0 6 2.6875 6 6s-2.6875 6-6 6h-22.421875c-3.316406 0-6-2.6875-6-6s2.683594-6 6-6zm0 0"/><path d="m301.609375 119.085938h38.894531c3.3125 0 6 2.683593 6 6 0 3.3125-2.6875 6-6 6h-38.894531c-3.3125 0-6-2.6875-6-6 0-3.316407 2.683594-6 6-6zm0 0"/><path d="m318.082031 163.929688h22.421875c3.3125 0 6 2.683593 6 6 0 3.3125-2.6875 6-6 6h-22.421875c-3.316406 0-6-2.6875-6-6 0-3.316407 2.683594-6 6-6zm0 0"/><path d="m318.082031 208.773438h22.421875c3.3125 0 6 2.6875 6 6 0 3.316406-2.6875 6-6 6h-22.421875c-3.316406 0-6-2.683594-6-6 0-3.3125 2.683594-6 6-6zm0 0"/><path d="m301.609375 253.617188h38.894531c3.3125 0 6 2.6875 6 6 0 3.316406-2.6875 6-6 6h-38.894531c-3.3125 0-6-2.683594-6-6 0-3.3125 2.683594-6 6-6zm0 0"/><path d="m318.082031 298.464844h22.421875c3.3125 0 6 2.683594 6 6 0 3.3125-2.6875 6-6 6h-22.421875c-3.316406 0-6-2.6875-6-6 0-3.316406 2.683594-6 6-6zm0 0"/><path d="m318.082031 343.308594h22.421875c3.3125 0 6 2.6875 6 6 0 3.316406-2.6875 6-6 6h-22.421875c-3.316406 0-6-2.683594-6-6 0-3.3125 2.683594-6 6-6zm0 0"/><path d="m301.609375 388.152344h38.894531c3.3125 0 6 2.6875 6 6 0 3.316406-2.6875 6-6 6h-38.894531c-3.3125 0-6-2.683594-6-6 0-3.3125 2.683594-6 6-6zm0 0"/><path d="m318.082031 433h22.421875c3.3125 0 6 2.6875 6 6s-2.6875 6-6 6h-22.421875c-3.316406 0-6-2.6875-6-6s2.683594-6 6-6zm0 0"/></g><path d="m337.53125 474.390625h-67.265625c-7.152344 0-12.96875-5.816406-12.96875-12.96875v-448.453125c0-7.152344 5.816406-12.96875 12.96875-12.96875h67.265625c7.152344 0 12.96875 5.816406 12.96875 12.96875v448.453125c.003906 7.152344-5.816406 12.96875-12.96875 12.96875zm-67.265625-466.386719c-2.742187 0-4.96875 2.226563-4.96875 4.96875v448.453125c0 2.738281 2.226563 4.96875 4.96875 4.96875h67.265625c2.742188 0 4.96875-2.230469 4.96875-4.96875v-448.457031c0-2.738281-2.226562-4.96875-4.96875-4.96875h-67.265625zm0 0" fill="#3762cc"/><path d="m282.683594 60.503906v-.0625h-159.058594v206.929688h158.445312v-7.761719c3.371094.742187 5.933594 3.917969 6.074219 7.761719h.015625v-200.839844c0-3.152344-2.402344-5.71875-5.476562-6.027344zm0 0" fill="#a4c9ff"/><path d="m257.382812 142.210938h-109.066406c-4.675781 0-8.464844-3.789063-8.464844-8.464844v-31.066406c0-4.675782 3.789063-8.46875 8.464844-8.46875h109.066406c4.675782 0 8.46875 3.792968 8.46875 8.46875v31.066406c-.003906 4.675781-3.792968 8.464844-8.46875 8.464844zm0 0" fill="#e0ebfc"/><path d="m280.5625 331.929688h-164.117188c-.777343 0-1.554687-.035157-2.320312-.085938l-2.800781.003906c-17.625 0-31.957031-17.136718-31.957031-38.203125 0-21.066406 14.335937-38.203125 31.953124-38.203125h169.242188c6.394531 0 11.601562 5.5 11.601562 12.257813 0 6.757812-5.207031 12.257812-11.601562 12.257812h-1.09375v27.449219h1.09375c6.394531 0 11.601562 5.5 11.601562 12.257812-.003906 6.765626-5.207031 12.265626-11.601562 12.265626zm-166.304688-8.082032c.089844 0 .179688 0 .269532.007813.636718.042969 1.273437.074219 1.917968.074219h164.117188c1.984375 0 3.597656-1.910157 3.597656-4.257813s-1.613281-4.257813-3.597656-4.257813h-5.097656c-2.207032 0-4-1.792968-4-4v-35.453124c0-2.207032 1.792968-4 4-4h5.097656c1.984375 0 3.597656-1.910157 3.597656-4.257813s-1.613281-4.257813-3.597656-4.257813h-169.242188c-13.207031 0-23.957031 13.546876-23.957031 30.203126s10.746094 30.207031 23.957031 30.207031l2.929688-.003907c.003906-.003906.003906-.003906.007812-.003906zm0 0" fill="#3762cc"/><path d="m257.382812 146.210938h-109.066406c-6.875 0-12.464844-5.589844-12.464844-12.464844v-31.066406c0-6.875 5.589844-12.46875 12.464844-12.46875h109.066406c6.875 0 12.464844 5.59375 12.464844 12.46875v31.0625c0 6.878906-5.589844 12.46875-12.464844 12.46875zm-109.066406-48c-2.460937 0-4.464844 2.003906-4.464844 4.46875v31.0625c0 2.464843 2.003907 4.46875 4.464844 4.46875h109.066406c2.460938 0 4.464844-2.003907 4.464844-4.46875v-31.0625c0-2.464844-2.003906-4.46875-4.464844-4.46875zm0 0" fill="#3762cc"/><path d="m280.5625 275.960938h-5.097656v35.449218h5.097656c4.101562 0 7.445312 3.554688 7.582031 7.972656h.015625v-51.679687c0 4.550781-3.40625 8.257813-7.597656 8.257813zm0 0" fill="#a4c9ff"/><path d="m288.144531 267.371094c.003907.109375.015625.21875.015625.328125v-.328125zm0 0" fill="#a4c9ff"/><path d="m116.445312 327.929688c-.734374 0-1.464843-.035157-2.191406-.082032l-2.9375.003906c-15.414062 0-27.953125-15.34375-27.953125-34.207031 0-18.859375 12.539063-34.203125 27.953125-34.203125h169.246094c4.191406 0 7.597656 3.703125 7.597656 8.257813 0 4.554687-3.40625 8.257812-7.597656 8.257812h-167.515625c-7.988281 0-14.484375 7.953125-14.484375 17.726563 0 9.773437 6.496094 17.726562 14.484375 17.726562h167.515625c4.191406 0 7.597656 3.703125 7.597656 8.257813 0 4.554687-3.40625 8.257812-7.597656 8.257812h-164.117188zm0 0" fill="#4671c6"/><path d="m280.5625 331.929688h-164.117188c-.777343 0-1.554687-.035157-2.320312-.085938l-2.800781.003906c-17.625 0-31.957031-17.136718-31.957031-38.203125 0-21.066406 14.335937-38.203125 31.953124-38.203125h169.242188c6.394531 0 11.601562 5.5 11.601562 12.257813 0 6.757812-5.207031 12.257812-11.601562 12.257812h-167.515625c-5.78125 0-10.484375 6.15625-10.484375 13.726563 0 7.570312 4.707031 13.722656 10.484375 13.722656h167.515625c6.394531 0 11.597656 5.5 11.597656 12.257812 0 6.765626-5.203125 12.265626-11.597656 12.265626zm-166.304688-8.082032c.089844 0 .179688 0 .269532.007813.636718.042969 1.273437.074219 1.917968.074219h164.117188c1.984375 0 3.597656-1.910157 3.597656-4.257813s-1.613281-4.257813-3.597656-4.257813h-167.515625c-10.191406 0-18.484375-9.746093-18.484375-21.726562s8.292969-21.726562 18.484375-21.726562h167.515625c1.984375 0 3.597656-1.910157 3.597656-4.257813s-1.613281-4.257813-3.597656-4.257813h-169.242188c-13.207031 0-23.957031 13.546876-23.957031 30.203126s10.746094 30.207031 23.957031 30.207031l2.929688-.003907c.003906-.003906.003906-.003906.007812-.003906zm0 0" fill="#3762cc"/><path d="m275.464844 315.410156h-162.417969c-10.191406 0-18.484375-9.746094-18.484375-21.722656 0-11.980469 8.292969-21.726562 18.484375-21.726562h162.417969c2.210937 0 4 1.792968 4 4v35.449218c0 2.210938-1.789063 4-4 4zm-162.417969-35.449218c-5.78125 0-10.484375 6.15625-10.484375 13.726562 0 7.566406 4.707031 13.722656 10.484375 13.722656h158.417969v-27.449218zm0 0" fill="#3762cc"/><path d="m113.046875 275.960938c-7.988281 0-14.484375 7.949218-14.484375 17.726562 0 9.773438 6.496094 17.722656 14.484375 17.722656h162.417969v-35.449218zm0 0" fill="#e0ebfc"/><path d="m108.023438 60.441406c-13.621094 0-24.65625 11.039063-24.65625 24.65625v208.546875c0-17.492187 10.789062-31.953125 24.65625-33.957031 1.082031-.15625 2.179687-.246094 3.296874-.246094h12.304688v-199zm0 0" fill="#6bdddd"/><path d="m288.160156 323.382812c-2.160156 0-3.941406-1.710937-4.011718-3.871093-.070313-2.261719-1.679688-4.101563-3.585938-4.101563h-5.097656c-2.207032 0-4-1.789062-4-4v-35.449218c0-2.207032 1.792968-4 4-4h5.097656c1.984375 0 3.597656-1.910157 3.597656-4.257813 0-2.210937 1.792969-4 4-4 2.207032 0 4 1.789063 4 4v51.679687c0 2.210938-1.792968 4-4 4zm-8.695312-15.972656h1.097656c1.257812 0 2.464844.210938 3.597656.597656v-28.652343c-1.132812.390625-2.34375.605469-3.597656.605469h-1.097656zm0 0" fill="#3762cc"/><path d="m288.160156 271.703125c-2.207031 0-4-1.792969-4-4-.003906-.097656-.003906-.195313 0-.292969l.003906-.039062c.039063-.984375.433594-1.980469 1.109376-2.683594.753906-.78125 1.789062-1.316406 2.875-1.316406h.015624c2.207032 0 4 1.792968 4 4v.328125c-.003906 2.210937-1.796874 4.003906-4.003906 4.003906zm-.015625-4.328125h.023438zm0 0" fill="#3762cc"/><path d="m83.363281 297.6875c-1.863281 0-3.445312-1.285156-3.878906-3.039062-.0625-.253907-.101563-.515626-.113281-.785157v-.015625c-.003906-.070312-.007813-.140625-.007813-.203125 0-2.207031 1.792969-4 4-4 2.152344 0 3.90625 1.699219 3.996094 3.828125.003906.070313.007813.148438.007813.210938 0 2.171875-1.730469 3.945312-3.902344 4-.03125.003906-.066406.003906-.101563.003906zm0 0" fill="#3762cc"/><path d="m83.363281 297.644531c-2.207031 0-4-1.789062-4-4v-208.546875c0-15.800781 12.855469-28.65625 28.65625-28.65625h15.605469c2.207031 0 4 1.792969 4 4v199c0 2.207032-1.792969 4-4 4h-12.304688c-.878906 0-1.769531.070313-2.726562.207032-12.101562 1.75-21.226562 14.644531-21.226562 29.996093-.003907 2.210938-1.792969 4-4.003907 4zm24.65625-233.203125c-11.390625 0-20.65625 9.265625-20.65625 20.65625v183.273438c5.023438-6.808594 12.058594-11.480469 20.085938-12.640625 1.339843-.195313 2.605469-.289063 3.871093-.289063h8.304688v-191zm0 0" fill="#3762cc"/><path d="m288.160156 271.375c-2.152344 0-3.933594-1.703125-4.011718-3.855469-.082032-2.246093-1.691407-4.074219-3.585938-4.074219h-156.9375c-2.207031 0-4-1.792968-4-4v-199c0-2.210937 1.792969-4 4-4h159.058594c.449218 0 .875.074219 1.277344.207032 4.730468.890625 8.199218 4.992187 8.199218 9.878906v200.84375c0 2.207031-1.792968 4-4 4zm0-4h.019532zm-160.535156-11.929688h152.9375c1.253906 0 2.464844.207032 3.597656.59375v-189.507812c0-1.058594-.804687-1.9375-1.875-2.046875-.101562-.011719-.199218-.023437-.296875-.042969h-154.363281zm0 0" fill="#3762cc"/><path d="m345.683594 482.753906h-307.296875c-6.628907 0-12-5.371094-12-12v-224h319.292969v236zm0 0" fill="#f9a7a7"/><path d="m446.375 482.753906h-100.691406v-236h112.691406v224c0 6.628906-5.375 12-12 12zm0 0" fill="#f9a7a7"/><path d="m345.679688 486.753906h-307.292969c-8.824219 0-16-7.179687-16-16v-224c0-2.207031 1.792969-4 4-4h319.292969c2.207031 0 4 1.792969 4 4v236c0 2.210938-1.789063 4-4 4zm-315.292969-236v220c0 4.410156 3.585937 8 8 8h303.292969v-228zm0 0" fill="#3762cc"/><path d="m446.375 486.753906h-100.695312c-2.207032 0-4-1.792968-4-4v-236c0-2.207031 1.792968-4 4-4h112.695312c2.207031 0 4 1.792969 4 4v224c0 8.824219-7.179688 16-16 16zm-96.695312-8h96.695312c4.410156 0 8-3.589844 8-8v-220h-104.695312zm0 0" fill="#3762cc"/><path d="m345.683594 246.753906 22.832031 90.140625c.933594 3.691407 4.109375 6.257813 7.742187 6.257813h96.105469c5.265625 0 9.097657-5.246094 7.746094-10.597656l-21.734375-85.800782zm0 0" fill="#f9cfcf"/><path d="m472.363281 347.15625h-96.105469c-5.460937 0-10.242187-3.816406-11.625-9.277344l-22.832031-90.144531c-.300781-1.195313-.035156-2.464844.722657-3.4375.757812-.976563 1.921874-1.542969 3.15625-1.542969h112.691406c1.832031 0 3.429687 1.242188 3.878906 3.019532l21.726562 85.800781c.976563 3.855469.152344 7.847656-2.261718 10.953125-2.289063 2.941406-5.699219 4.628906-9.351563 4.628906zm-121.542969-96.402344 21.570313 85.160156c.484375 1.910157 2.074219 3.242188 3.867187 3.242188h96.105469c1.601563 0 2.59375-.964844 3.042969-1.542969.890625-1.144531 1.191406-2.628906.824219-4.074219l-20.964844-82.785156zm0 0" fill="#3762cc"/><path d="m343.800781 246.753906-22.832031 90.140625c-.933594 3.691407-4.109375 6.257813-7.742188 6.257813h-300.828124c-5.265626 0-9.097657-5.246094-7.746094-10.597656l21.734375-85.800782zm0 0" fill="#f9cfcf"/><path d="m313.226562 347.15625h-300.828124c-3.652344 0-7.0625-1.6875-9.355469-4.628906-2.417969-3.105469-3.242188-7.097656-2.265625-10.953125l21.730468-85.800781c.449219-1.777344 2.046876-3.019532 3.875-3.019532h317.417969c1.234375 0 2.398438.570313 3.15625 1.542969.757813.972656 1.023438 2.242187.722657 3.4375l-22.832032 90.144531c-1.382812 5.464844-6.160156 9.277344-11.621094 9.277344zm-283.726562-96.402344-20.964844 82.785156c-.367187 1.445313-.066406 2.929688.824219 4.074219.449219.578125 1.4375 1.542969 3.039063 1.542969h300.832031c1.792969 0 3.382812-1.335938 3.867187-3.242188l21.570313-85.160156zm0 0" fill="#3762cc"/></svg>