<svg id="Capa_1" data-name="Capa 1" xmlns="http://www.w3.org/2000/svg" viewBox="0 0 508.48 150.83"><defs><style>.cls-1{fill:#fff;}</style></defs><title>logowhite</title><path class="cls-1" d="M50.05,159.7H25.68V53.24H48.59v17.4q7.29-11.12,16.56-16.22T87,49.31q12.47,0,20.67,5.22t12.46,15.89q8.43-11,17.92-16.06a45.23,45.23,0,0,1,21.61-5,41.24,41.24,0,0,1,18.42,3.87,28.56,28.56,0,0,1,12.24,11.29,26.84,26.84,0,0,1,3,8.31,75.57,75.57,0,0,1,1,13.81V159.7H169.87V105q0-21.45-4.54-28.24T149.1,70q-14.39,0-20.5,9.15t-6.12,32.07V159.7H97.89V105q0-19.77-4.78-27.4T76.66,70a27,27,0,0,0-13.14,3.26,24.67,24.67,0,0,0-9.43,9,25.47,25.47,0,0,0-3.15,9.1q-.9,5.39-.89,19.88Z" transform="translate(-25.68 -15.27)"/><path class="cls-1" d="M264.32,166.1,208.51,53.24h26.61l23.25,53.57a71.5,71.5,0,0,1,2.7,7.41q1.56,4.94,3.25,11.79,1.13-4.83,2.64-9.6a95.33,95.33,0,0,1,3.65-9.6l23.14-53.57h26.5Z" transform="translate(-25.68 -15.27)"/><path class="cls-1" d="M415,83.56A38.13,38.13,0,0,0,402,74.13a39.89,39.89,0,0,0-16.11-3.26q-14.94,0-23.92,9.66t-9,25.6q0,16.62,9,26.11t25,9.49a36.39,36.39,0,0,0,15.83-3.31,34.19,34.19,0,0,0,12.25-10v28.08a57.18,57.18,0,0,1-14.44,5.72,67.7,67.7,0,0,1-16.34,1.91q-25,0-40.82-16t-15.78-41.32q0-25.73,16.34-41.5t42.73-15.78A67.43,67.43,0,0,1,402,51.16a50.4,50.4,0,0,1,13,5Z" transform="translate(-25.68 -15.27)"/><path class="cls-1" d="M433.47,121.91H461.7v.39a15.54,15.54,0,0,0,5.81,12.55q5.81,4.83,15.18,4.83,10.85,0,16.75-5.37t5.91-15.23q0-10.45-6.11-15.82t-17.92-5.37c-.39,0-1,0-1.85.09s-1.5.1-2,.1v-25c.39,0,1,0,1.75.1s1.34.1,1.66.1q10.54,0,15.87-4.5t5.33-13.47q0-7.62-4.84-12.31t-12.74-4.68q-8.4,0-13.19,3.8T465.7,53.06H438.55q1.08-18.16,13.18-28t33.79-9.81q20.81,0,33,10.25t12.21,27.74q0,12.21-6.59,20.75a27.4,27.4,0,0,1-17.44,10.5,32.89,32.89,0,0,1,20,12.59q7.42,9.87,7.43,24,0,19.62-14,31t-38.08,11.38q-22,0-35.31-11.13t-13.33-29.3Z" transform="translate(-25.68 -15.27)"/></svg>